<svg width="115" height="171" viewBox="0 0 115 171" fill="none" xmlns="http://www.w3.org/2000/svg">
<g filter="url(#filter0_d_10_6)">
<rect x="5" y="4" width="105" height="158" rx="10" fill="#E3CFFF"/>
<rect x="6" y="5" width="103" height="156" rx="9" stroke="#7B00FF" stroke-width="2"/>
</g>
<rect x="14" y="27" width="65" height="8" fill="#D0A4FF"/>
<rect x="14" y="44" width="50" height="8" fill="#D0A4FF"/>
<rect x="14" y="61" width="80" height="8" fill="#D0A4FF"/>
<rect x="14" y="75" width="37" height="8" fill="#D0A4FF"/>
<rect x="14" y="89" width="57" height="8" fill="#D0A4FF"/>
<rect x="14" y="103" width="74" height="8" fill="#D0A4FF"/>
<rect x="14" y="117" width="62" height="8" fill="#D0A4FF"/>
<rect x="14" y="131" width="24" height="8" fill="#D0A4FF"/>
<g filter="url(#filter1_d_10_6)">
<path d="M76 0H92V64L84 56L76 64V0Z" fill="#7B00FF"/>
</g>
<path d="M85 0H92V64L85 57V0Z" fill="#6800D8"/>
<g filter="url(#filter2_d_10_6)">
<path d="M69.0527 68.5752C73.2854 68.0893 77.3893 70.0157 79.8896 73.165C82.285 76.1823 83.1673 80.2596 81.2842 84.375L81.0928 84.7734C79.8294 87.2964 77.1758 90.4218 74.0752 93.6299V93.6309C70.6709 97.1551 67.006 100.506 64.291 103.199L58.1367 109.303L53.249 104.598C49.5511 101.037 45.0057 97.2987 41.1953 92.9814C37.4099 88.6925 34.6812 84.1697 34.5078 79.3262C34.2749 72.7992 39.3667 68.5449 45.4863 68.6221C48.2511 68.6595 50.1397 69.3526 51.8018 70.4473C53.5496 71.5984 55.0459 73.1778 57.1035 75.1797L58.1865 76.2334L59.2314 75.1426C62.6611 71.5673 64.5953 69.0846 69.0518 68.5752H69.0527Z" fill="#7B00FF" fill-opacity="0.4" stroke="#7B00FF" stroke-width="3"/>
</g>
<defs>
<filter id="filter0_d_10_6" x="0" y="3" width="115" height="168" filterUnits="userSpaceOnUse" color-interpolation-filters="sRGB">
<feFlood flood-opacity="0" result="BackgroundImageFix"/>
<feColorMatrix in="SourceAlpha" type="matrix" values="0 0 0 0 0 0 0 0 0 0 0 0 0 0 0 0 0 0 127 0" result="hardAlpha"/>
<feMorphology radius="1" operator="dilate" in="SourceAlpha" result="effect1_dropShadow_10_6"/>
<feOffset dy="4"/>
<feGaussianBlur stdDeviation="2"/>
<feComposite in2="hardAlpha" operator="out"/>
<feColorMatrix type="matrix" values="0 0 0 0 0 0 0 0 0 0 0 0 0 0 0 0 0 0 0.25 0"/>
<feBlend mode="normal" in2="BackgroundImageFix" result="effect1_dropShadow_10_6"/>
<feBlend mode="normal" in="SourceGraphic" in2="effect1_dropShadow_10_6" result="shape"/>
</filter>
<filter id="filter1_d_10_6" x="72" y="0" width="24" height="72" filterUnits="userSpaceOnUse" color-interpolation-filters="sRGB">
<feFlood flood-opacity="0" result="BackgroundImageFix"/>
<feColorMatrix in="SourceAlpha" type="matrix" values="0 0 0 0 0 0 0 0 0 0 0 0 0 0 0 0 0 0 127 0" result="hardAlpha"/>
<feOffset dy="4"/>
<feGaussianBlur stdDeviation="2"/>
<feComposite in2="hardAlpha" operator="out"/>
<feColorMatrix type="matrix" values="0 0 0 0 0 0 0 0 0 0 0 0 0 0 0 0 0 0 0.25 0"/>
<feBlend mode="normal" in2="BackgroundImageFix" result="effect1_dropShadow_10_6"/>
<feBlend mode="normal" in="SourceGraphic" in2="effect1_dropShadow_10_6" result="shape"/>
</filter>
<filter id="filter2_d_10_6" x="29" y="67" width="58.8025" height="52.4" filterUnits="userSpaceOnUse" color-interpolation-filters="sRGB">
<feFlood flood-opacity="0" result="BackgroundImageFix"/>
<feColorMatrix in="SourceAlpha" type="matrix" values="0 0 0 0 0 0 0 0 0 0 0 0 0 0 0 0 0 0 127 0" result="hardAlpha"/>
<feOffset dy="4"/>
<feGaussianBlur stdDeviation="2"/>
<feComposite in2="hardAlpha" operator="out"/>
<feColorMatrix type="matrix" values="0 0 0 0 0 0 0 0 0 0 0 0 0 0 0 0 0 0 0.25 0"/>
<feBlend mode="normal" in2="BackgroundImageFix" result="effect1_dropShadow_10_6"/>
<feBlend mode="normal" in="SourceGraphic" in2="effect1_dropShadow_10_6" result="shape"/>
</filter>
</defs>
</svg>
